<mxfile host="app.diagrams.net" modified="2023-04-24T13:41:06.873Z" agent="Mozilla/5.0 (Windows NT 10.0; Win64; x64) AppleWebKit/537.36 (KHTML, like Gecko) Chrome/112.0.0.0 Safari/537.36" etag="KMX-17ER0Cw6uxU78LwZ" version="21.2.1" type="device">
  <diagram name="Página-1" id="oSbDpv5mkl6K-erDEnrz">
    <mxGraphModel dx="1434" dy="764" grid="1" gridSize="10" guides="1" tooltips="1" connect="1" arrows="1" fold="1" page="1" pageScale="1" pageWidth="827" pageHeight="1169" math="0" shadow="0">
      <root>
        <mxCell id="0" />
        <mxCell id="1" parent="0" />
        <mxCell id="GBYch5mcf7MRAMJ2zihR-43" value="" style="rounded=1;whiteSpace=wrap;html=1;fillColor=#f8cecc;strokeColor=#b85450;" parent="1" vertex="1">
          <mxGeometry x="682" y="150" width="160" height="450" as="geometry" />
        </mxCell>
        <mxCell id="GBYch5mcf7MRAMJ2zihR-11" value="" style="rounded=1;whiteSpace=wrap;html=1;absoluteArcSize=1;arcSize=14;strokeWidth=2;align=center;fillColor=#d5e8d4;strokeColor=#82b366;" parent="1" vertex="1">
          <mxGeometry x="405" y="470" width="250" height="140" as="geometry" />
        </mxCell>
        <mxCell id="GBYch5mcf7MRAMJ2zihR-32" style="edgeStyle=orthogonalEdgeStyle;rounded=0;orthogonalLoop=1;jettySize=auto;html=1;entryX=0.5;entryY=0;entryDx=0;entryDy=0;" parent="1" source="GBYch5mcf7MRAMJ2zihR-1" target="GBYch5mcf7MRAMJ2zihR-2" edge="1">
          <mxGeometry relative="1" as="geometry" />
        </mxCell>
        <mxCell id="GBYch5mcf7MRAMJ2zihR-1" value="Inicio" style="strokeWidth=2;html=1;shape=mxgraph.flowchart.start_2;whiteSpace=wrap;fontSize=16;fillColor=#dae8fc;strokeColor=#6c8ebf;" parent="1" vertex="1">
          <mxGeometry x="480" y="20" width="100" height="100" as="geometry" />
        </mxCell>
        <mxCell id="GBYch5mcf7MRAMJ2zihR-18" style="edgeStyle=orthogonalEdgeStyle;rounded=0;orthogonalLoop=1;jettySize=auto;html=1;" parent="1" source="GBYch5mcf7MRAMJ2zihR-2" target="GBYch5mcf7MRAMJ2zihR-9" edge="1">
          <mxGeometry relative="1" as="geometry" />
        </mxCell>
        <mxCell id="GBYch5mcf7MRAMJ2zihR-46" style="edgeStyle=orthogonalEdgeStyle;rounded=0;orthogonalLoop=1;jettySize=auto;html=1;entryX=0.5;entryY=0;entryDx=0;entryDy=0;entryPerimeter=0;" parent="1" source="GBYch5mcf7MRAMJ2zihR-2" target="GBYch5mcf7MRAMJ2zihR-45" edge="1">
          <mxGeometry relative="1" as="geometry" />
        </mxCell>
        <mxCell id="GBYch5mcf7MRAMJ2zihR-2" value="Configuración de módulos e inicialización de variables" style="rounded=1;whiteSpace=wrap;html=1;absoluteArcSize=1;arcSize=14;strokeWidth=2;fontSize=16;fillColor=#dae8fc;strokeColor=#6c8ebf;" parent="1" vertex="1">
          <mxGeometry x="440" y="160" width="180" height="70" as="geometry" />
        </mxCell>
        <mxCell id="GBYch5mcf7MRAMJ2zihR-16" style="edgeStyle=orthogonalEdgeStyle;rounded=0;orthogonalLoop=1;jettySize=auto;html=1;entryX=0.5;entryY=0;entryDx=0;entryDy=0;" parent="1" source="GBYch5mcf7MRAMJ2zihR-9" target="GBYch5mcf7MRAMJ2zihR-10" edge="1">
          <mxGeometry relative="1" as="geometry" />
        </mxCell>
        <mxCell id="GBYch5mcf7MRAMJ2zihR-9" value="while(1)" style="strokeWidth=2;html=1;shape=mxgraph.flowchart.decision;whiteSpace=wrap;fontSize=16;fillColor=#dae8fc;strokeColor=#6c8ebf;" parent="1" vertex="1">
          <mxGeometry x="480" y="250" width="100" height="100" as="geometry" />
        </mxCell>
        <mxCell id="GBYch5mcf7MRAMJ2zihR-15" style="edgeStyle=orthogonalEdgeStyle;rounded=0;orthogonalLoop=1;jettySize=auto;html=1;entryX=0.5;entryY=0;entryDx=0;entryDy=0;entryPerimeter=0;" parent="1" source="GBYch5mcf7MRAMJ2zihR-10" target="GBYch5mcf7MRAMJ2zihR-13" edge="1">
          <mxGeometry relative="1" as="geometry" />
        </mxCell>
        <mxCell id="GBYch5mcf7MRAMJ2zihR-10" value="INIT" style="rounded=1;whiteSpace=wrap;html=1;absoluteArcSize=1;arcSize=14;strokeWidth=2;fontSize=16;fillColor=#d5e8d4;strokeColor=#82b366;fontStyle=1" parent="1" vertex="1">
          <mxGeometry x="490" y="380" width="80" height="50" as="geometry" />
        </mxCell>
        <mxCell id="GBYch5mcf7MRAMJ2zihR-12" value="REFRESH&lt;br style=&quot;font-size: 16px;&quot;&gt;SCOREBOARD" style="rounded=1;whiteSpace=wrap;html=1;absoluteArcSize=1;arcSize=14;strokeWidth=2;fontSize=16;fillColor=#d5e8d4;strokeColor=#82b366;fontStyle=1" parent="1" vertex="1">
          <mxGeometry x="460" y="630" width="140" height="60" as="geometry" />
        </mxCell>
        <mxCell id="GBYch5mcf7MRAMJ2zihR-14" style="edgeStyle=orthogonalEdgeStyle;rounded=0;orthogonalLoop=1;jettySize=auto;html=1;entryX=0.5;entryY=0;entryDx=0;entryDy=0;" parent="1" source="GBYch5mcf7MRAMJ2zihR-13" target="GBYch5mcf7MRAMJ2zihR-12" edge="1">
          <mxGeometry relative="1" as="geometry" />
        </mxCell>
        <mxCell id="GBYch5mcf7MRAMJ2zihR-13" value="¿cmd recibido?&lt;br style=&quot;font-size: 16px;&quot;&gt;¿actualizar timer?" style="strokeWidth=2;html=1;shape=mxgraph.flowchart.decision;whiteSpace=wrap;fontSize=16;fillColor=#dae8fc;strokeColor=#6c8ebf;" parent="1" vertex="1">
          <mxGeometry x="426.25" y="490" width="207.5" height="100" as="geometry" />
        </mxCell>
        <mxCell id="GBYch5mcf7MRAMJ2zihR-22" value="HTTP Request" style="shape=parallelogram;html=1;strokeWidth=2;perimeter=parallelogramPerimeter;whiteSpace=wrap;rounded=1;arcSize=12;size=0.23;fontSize=16;fillColor=#dae8fc;strokeColor=#6c8ebf;" parent="1" vertex="1">
          <mxGeometry x="150" y="400" width="240" height="55" as="geometry" />
        </mxCell>
        <mxCell id="GBYch5mcf7MRAMJ2zihR-29" style="edgeStyle=orthogonalEdgeStyle;rounded=0;orthogonalLoop=1;jettySize=auto;html=1;entryX=0.5;entryY=0;entryDx=0;entryDy=0;" parent="1" source="GBYch5mcf7MRAMJ2zihR-23" target="GBYch5mcf7MRAMJ2zihR-26" edge="1">
          <mxGeometry relative="1" as="geometry" />
        </mxCell>
        <mxCell id="GBYch5mcf7MRAMJ2zihR-23" value="Inicio&lt;br&gt;ISR" style="strokeWidth=2;html=1;shape=mxgraph.flowchart.start_2;whiteSpace=wrap;fontSize=16;fillColor=#dae8fc;strokeColor=#6c8ebf;" parent="1" vertex="1">
          <mxGeometry x="712" y="300" width="100" height="100" as="geometry" />
        </mxCell>
        <mxCell id="GBYch5mcf7MRAMJ2zihR-28" style="edgeStyle=orthogonalEdgeStyle;rounded=0;orthogonalLoop=1;jettySize=auto;html=1;entryX=0.5;entryY=0;entryDx=0;entryDy=0;entryPerimeter=0;" parent="1" source="GBYch5mcf7MRAMJ2zihR-25" target="GBYch5mcf7MRAMJ2zihR-23" edge="1">
          <mxGeometry relative="1" as="geometry" />
        </mxCell>
        <mxCell id="GBYch5mcf7MRAMJ2zihR-25" value="¿segundo transcurrido?" style="strokeWidth=2;html=1;shape=mxgraph.flowchart.decision;whiteSpace=wrap;fontSize=16;fillColor=#dae8fc;strokeColor=#6c8ebf;" parent="1" vertex="1">
          <mxGeometry x="697" y="160" width="130" height="120" as="geometry" />
        </mxCell>
        <mxCell id="GBYch5mcf7MRAMJ2zihR-30" style="edgeStyle=orthogonalEdgeStyle;rounded=0;orthogonalLoop=1;jettySize=auto;html=1;entryX=0.5;entryY=0;entryDx=0;entryDy=0;entryPerimeter=0;" parent="1" source="GBYch5mcf7MRAMJ2zihR-26" target="GBYch5mcf7MRAMJ2zihR-27" edge="1">
          <mxGeometry relative="1" as="geometry" />
        </mxCell>
        <mxCell id="GBYch5mcf7MRAMJ2zihR-26" value="Set flag" style="rounded=1;whiteSpace=wrap;html=1;absoluteArcSize=1;arcSize=14;strokeWidth=2;fontSize=16;fillColor=#dae8fc;strokeColor=#6c8ebf;" parent="1" vertex="1">
          <mxGeometry x="707" y="420" width="110" height="45" as="geometry" />
        </mxCell>
        <mxCell id="GBYch5mcf7MRAMJ2zihR-27" value="Fin&lt;br&gt;ISR" style="strokeWidth=2;html=1;shape=mxgraph.flowchart.start_2;whiteSpace=wrap;fontSize=16;fillColor=#dae8fc;strokeColor=#6c8ebf;" parent="1" vertex="1">
          <mxGeometry x="712" y="490" width="100" height="100" as="geometry" />
        </mxCell>
        <mxCell id="GBYch5mcf7MRAMJ2zihR-33" value="" style="verticalLabelPosition=bottom;verticalAlign=top;html=1;strokeWidth=2;shape=mxgraph.arrows2.arrow;dy=0.6;dx=40;notch=0;rotation=30;fillColor=#fff2cc;strokeColor=#d6b656;gradientColor=#ffd966;" parent="1" vertex="1">
          <mxGeometry x="366.09" y="455.92" width="95" height="35" as="geometry" />
        </mxCell>
        <mxCell id="GBYch5mcf7MRAMJ2zihR-34" value="" style="verticalLabelPosition=bottom;verticalAlign=top;html=1;strokeWidth=2;shape=mxgraph.arrows2.arrow;dy=0.6;dx=40;notch=0;rotation=-210;fillColor=#fff2cc;gradientColor=#ffd966;strokeColor=#d6b656;" parent="1" vertex="1">
          <mxGeometry x="601" y="455.91999999999996" width="95" height="35" as="geometry" />
        </mxCell>
        <mxCell id="GBYch5mcf7MRAMJ2zihR-38" value="" style="endArrow=none;html=1;rounded=0;entryX=0;entryY=0.5;entryDx=0;entryDy=0;entryPerimeter=0;" parent="1" target="GBYch5mcf7MRAMJ2zihR-13" edge="1">
          <mxGeometry width="50" height="50" relative="1" as="geometry">
            <mxPoint x="390" y="540" as="sourcePoint" />
            <mxPoint x="560" y="480" as="targetPoint" />
          </mxGeometry>
        </mxCell>
        <mxCell id="GBYch5mcf7MRAMJ2zihR-39" value="" style="endArrow=none;html=1;rounded=0;" parent="1" edge="1">
          <mxGeometry width="50" height="50" relative="1" as="geometry">
            <mxPoint x="390" y="540" as="sourcePoint" />
            <mxPoint x="390" y="450" as="targetPoint" />
          </mxGeometry>
        </mxCell>
        <mxCell id="GBYch5mcf7MRAMJ2zihR-40" value="" style="endArrow=classic;html=1;rounded=0;" parent="1" edge="1">
          <mxGeometry width="50" height="50" relative="1" as="geometry">
            <mxPoint x="390" y="450" as="sourcePoint" />
            <mxPoint x="530" y="450" as="targetPoint" />
          </mxGeometry>
        </mxCell>
        <mxCell id="GBYch5mcf7MRAMJ2zihR-42" value="IDLE" style="text;html=1;strokeColor=none;fillColor=none;align=center;verticalAlign=middle;whiteSpace=wrap;rounded=0;fontSize=16;fontStyle=1" parent="1" vertex="1">
          <mxGeometry x="595" y="580" width="60" height="30" as="geometry" />
        </mxCell>
        <mxCell id="GBYch5mcf7MRAMJ2zihR-44" value="TIMER" style="text;html=1;strokeColor=none;fillColor=none;align=center;verticalAlign=middle;whiteSpace=wrap;rounded=0;fontSize=22;fontStyle=1" parent="1" vertex="1">
          <mxGeometry x="722" y="110" width="80" height="30" as="geometry" />
        </mxCell>
        <mxCell id="GBYch5mcf7MRAMJ2zihR-49" style="edgeStyle=orthogonalEdgeStyle;rounded=0;orthogonalLoop=1;jettySize=auto;html=1;entryX=0.5;entryY=0;entryDx=0;entryDy=0;" parent="1" source="GBYch5mcf7MRAMJ2zihR-45" target="GBYch5mcf7MRAMJ2zihR-22" edge="1">
          <mxGeometry relative="1" as="geometry" />
        </mxCell>
        <mxCell id="GBYch5mcf7MRAMJ2zihR-45" value="Inicio&lt;br&gt;Web&lt;br&gt;Server" style="strokeWidth=2;html=1;shape=mxgraph.flowchart.start_2;whiteSpace=wrap;fillColor=#dae8fc;strokeColor=#6c8ebf;fontSize=16;" parent="1" vertex="1">
          <mxGeometry x="220" y="250" width="100" height="100" as="geometry" />
        </mxCell>
        <mxCell id="GBYch5mcf7MRAMJ2zihR-79" style="edgeStyle=orthogonalEdgeStyle;rounded=0;orthogonalLoop=1;jettySize=auto;html=1;entryX=0;entryY=0.5;entryDx=0;entryDy=0;" parent="1" source="GBYch5mcf7MRAMJ2zihR-51" target="GBYch5mcf7MRAMJ2zihR-61" edge="1">
          <mxGeometry relative="1" as="geometry" />
        </mxCell>
        <mxCell id="GBYch5mcf7MRAMJ2zihR-80" style="edgeStyle=orthogonalEdgeStyle;rounded=0;orthogonalLoop=1;jettySize=auto;html=1;entryX=0;entryY=0.5;entryDx=0;entryDy=0;" parent="1" source="GBYch5mcf7MRAMJ2zihR-51" target="GBYch5mcf7MRAMJ2zihR-53" edge="1">
          <mxGeometry relative="1" as="geometry" />
        </mxCell>
        <mxCell id="GBYch5mcf7MRAMJ2zihR-81" style="edgeStyle=orthogonalEdgeStyle;rounded=0;orthogonalLoop=1;jettySize=auto;html=1;entryX=0;entryY=0.5;entryDx=0;entryDy=0;" parent="1" source="GBYch5mcf7MRAMJ2zihR-51" target="GBYch5mcf7MRAMJ2zihR-52" edge="1">
          <mxGeometry relative="1" as="geometry" />
        </mxCell>
        <mxCell id="GBYch5mcf7MRAMJ2zihR-82" style="edgeStyle=orthogonalEdgeStyle;rounded=0;orthogonalLoop=1;jettySize=auto;html=1;entryX=0;entryY=0.5;entryDx=0;entryDy=0;" parent="1" source="GBYch5mcf7MRAMJ2zihR-51" target="GBYch5mcf7MRAMJ2zihR-56" edge="1">
          <mxGeometry relative="1" as="geometry" />
        </mxCell>
        <mxCell id="GBYch5mcf7MRAMJ2zihR-84" style="edgeStyle=orthogonalEdgeStyle;rounded=0;orthogonalLoop=1;jettySize=auto;html=1;entryX=0;entryY=0.5;entryDx=0;entryDy=0;" parent="1" source="GBYch5mcf7MRAMJ2zihR-51" target="GBYch5mcf7MRAMJ2zihR-55" edge="1">
          <mxGeometry relative="1" as="geometry" />
        </mxCell>
        <mxCell id="GBYch5mcf7MRAMJ2zihR-85" style="edgeStyle=orthogonalEdgeStyle;rounded=0;orthogonalLoop=1;jettySize=auto;html=1;entryX=0;entryY=0.5;entryDx=0;entryDy=0;" parent="1" source="GBYch5mcf7MRAMJ2zihR-51" target="GBYch5mcf7MRAMJ2zihR-57" edge="1">
          <mxGeometry relative="1" as="geometry" />
        </mxCell>
        <mxCell id="GBYch5mcf7MRAMJ2zihR-51" value="http://192.168.4.1" style="rounded=1;whiteSpace=wrap;html=1;fontSize=14;fillColor=#dae8fc;strokeColor=#6c8ebf;" parent="1" vertex="1">
          <mxGeometry x="1000" y="385" width="120" height="40" as="geometry" />
        </mxCell>
        <mxCell id="GBYch5mcf7MRAMJ2zihR-68" style="edgeStyle=orthogonalEdgeStyle;rounded=0;orthogonalLoop=1;jettySize=auto;html=1;entryX=0;entryY=0.5;entryDx=0;entryDy=0;" parent="1" source="GBYch5mcf7MRAMJ2zihR-52" target="GBYch5mcf7MRAMJ2zihR-60" edge="1">
          <mxGeometry relative="1" as="geometry" />
        </mxCell>
        <mxCell id="GBYch5mcf7MRAMJ2zihR-52" value="/score" style="rounded=1;whiteSpace=wrap;html=1;fontSize=14;fillColor=#dae8fc;strokeColor=#6c8ebf;" parent="1" vertex="1">
          <mxGeometry x="1161" y="310" width="80" height="40" as="geometry" />
        </mxCell>
        <mxCell id="GBYch5mcf7MRAMJ2zihR-66" style="edgeStyle=orthogonalEdgeStyle;rounded=0;orthogonalLoop=1;jettySize=auto;html=1;entryX=0;entryY=0.5;entryDx=0;entryDy=0;" parent="1" source="GBYch5mcf7MRAMJ2zihR-53" target="GBYch5mcf7MRAMJ2zihR-58" edge="1">
          <mxGeometry relative="1" as="geometry" />
        </mxCell>
        <mxCell id="GBYch5mcf7MRAMJ2zihR-53" value="/timer" style="rounded=1;whiteSpace=wrap;html=1;fontSize=14;fillColor=#dae8fc;strokeColor=#6c8ebf;" parent="1" vertex="1">
          <mxGeometry x="1161" y="407.5" width="80" height="40" as="geometry" />
        </mxCell>
        <mxCell id="GBYch5mcf7MRAMJ2zihR-67" style="edgeStyle=orthogonalEdgeStyle;rounded=0;orthogonalLoop=1;jettySize=auto;html=1;entryX=0;entryY=0.5;entryDx=0;entryDy=0;" parent="1" source="GBYch5mcf7MRAMJ2zihR-55" target="GBYch5mcf7MRAMJ2zihR-59" edge="1">
          <mxGeometry relative="1" as="geometry" />
        </mxCell>
        <mxCell id="GBYch5mcf7MRAMJ2zihR-55" value="/timer/set" style="rounded=1;whiteSpace=wrap;html=1;fontSize=14;fillColor=#dae8fc;strokeColor=#6c8ebf;" parent="1" vertex="1">
          <mxGeometry x="1161" y="453.41999999999996" width="80" height="40" as="geometry" />
        </mxCell>
        <mxCell id="GBYch5mcf7MRAMJ2zihR-70" style="edgeStyle=orthogonalEdgeStyle;rounded=0;orthogonalLoop=1;jettySize=auto;html=1;entryX=0;entryY=0.5;entryDx=0;entryDy=0;" parent="1" source="GBYch5mcf7MRAMJ2zihR-56" target="GBYch5mcf7MRAMJ2zihR-64" edge="1">
          <mxGeometry relative="1" as="geometry" />
        </mxCell>
        <mxCell id="GBYch5mcf7MRAMJ2zihR-56" value="/scoreboard" style="rounded=1;whiteSpace=wrap;html=1;fontSize=14;fillColor=#dae8fc;strokeColor=#6c8ebf;" parent="1" vertex="1">
          <mxGeometry x="1161" y="260" width="80" height="40" as="geometry" />
        </mxCell>
        <mxCell id="GBYch5mcf7MRAMJ2zihR-71" style="edgeStyle=orthogonalEdgeStyle;rounded=0;orthogonalLoop=1;jettySize=auto;html=1;entryX=0;entryY=0.5;entryDx=0;entryDy=0;" parent="1" source="GBYch5mcf7MRAMJ2zihR-57" target="GBYch5mcf7MRAMJ2zihR-65" edge="1">
          <mxGeometry relative="1" as="geometry" />
        </mxCell>
        <mxCell id="GBYch5mcf7MRAMJ2zihR-57" value="/reset" style="rounded=1;whiteSpace=wrap;html=1;fontSize=14;fillColor=#dae8fc;strokeColor=#6c8ebf;" parent="1" vertex="1">
          <mxGeometry x="1161" y="500" width="80" height="40" as="geometry" />
        </mxCell>
        <mxCell id="GBYch5mcf7MRAMJ2zihR-58" value="Iniciar/detener y reiniciar timer" style="text;html=1;strokeColor=none;fillColor=none;align=center;verticalAlign=middle;whiteSpace=wrap;rounded=0;fontSize=14;" parent="1" vertex="1">
          <mxGeometry x="1270" y="416.25" width="200" height="22.5" as="geometry" />
        </mxCell>
        <mxCell id="GBYch5mcf7MRAMJ2zihR-59" value="Modificar valores del timer" style="text;html=1;strokeColor=none;fillColor=none;align=center;verticalAlign=middle;whiteSpace=wrap;rounded=0;fontSize=14;" parent="1" vertex="1">
          <mxGeometry x="1270" y="462.16999999999996" width="170" height="22.5" as="geometry" />
        </mxCell>
        <mxCell id="GBYch5mcf7MRAMJ2zihR-60" value="Administrar puntajes local y visitante" style="text;html=1;strokeColor=none;fillColor=none;align=center;verticalAlign=middle;whiteSpace=wrap;rounded=0;fontSize=14;" parent="1" vertex="1">
          <mxGeometry x="1270" y="318.75" width="230" height="22.5" as="geometry" />
        </mxCell>
        <mxCell id="GBYch5mcf7MRAMJ2zihR-69" style="edgeStyle=orthogonalEdgeStyle;rounded=0;orthogonalLoop=1;jettySize=auto;html=1;entryX=0;entryY=0.5;entryDx=0;entryDy=0;" parent="1" source="GBYch5mcf7MRAMJ2zihR-61" target="GBYch5mcf7MRAMJ2zihR-63" edge="1">
          <mxGeometry relative="1" as="geometry" />
        </mxCell>
        <mxCell id="GBYch5mcf7MRAMJ2zihR-61" value="/chuker" style="rounded=1;whiteSpace=wrap;html=1;fontSize=14;fillColor=#dae8fc;strokeColor=#6c8ebf;" parent="1" vertex="1">
          <mxGeometry x="1161" y="357.5" width="80" height="40" as="geometry" />
        </mxCell>
        <mxCell id="GBYch5mcf7MRAMJ2zihR-63" value="Administrar valor del chuker" style="text;html=1;strokeColor=none;fillColor=none;align=center;verticalAlign=middle;whiteSpace=wrap;rounded=0;fontSize=14;" parent="1" vertex="1">
          <mxGeometry x="1270" y="366.25" width="180" height="22.5" as="geometry" />
        </mxCell>
        <mxCell id="GBYch5mcf7MRAMJ2zihR-64" value="Obtener datos de tablero" style="text;html=1;strokeColor=none;fillColor=none;align=center;verticalAlign=middle;whiteSpace=wrap;rounded=0;fontSize=14;" parent="1" vertex="1">
          <mxGeometry x="1270" y="268.75" width="160" height="22.5" as="geometry" />
        </mxCell>
        <mxCell id="GBYch5mcf7MRAMJ2zihR-65" value="Resetear todo el tablero" style="text;html=1;strokeColor=none;fillColor=none;align=center;verticalAlign=middle;whiteSpace=wrap;rounded=0;fontSize=14;" parent="1" vertex="1">
          <mxGeometry x="1270" y="508.75" width="160" height="22.5" as="geometry" />
        </mxCell>
        <mxCell id="GBYch5mcf7MRAMJ2zihR-78" value="HOST" style="text;html=1;strokeColor=none;fillColor=none;align=center;verticalAlign=middle;whiteSpace=wrap;rounded=0;fontStyle=1;fontSize=17;" parent="1" vertex="1">
          <mxGeometry x="1020" y="357.5" width="80" height="25" as="geometry" />
        </mxCell>
        <mxCell id="Vk_1e4DqvfFJr7k5B74B-2" value="" style="endArrow=none;html=1;rounded=0;exitX=0;exitY=0.5;exitDx=0;exitDy=0;" edge="1" parent="1" source="GBYch5mcf7MRAMJ2zihR-12">
          <mxGeometry width="50" height="50" relative="1" as="geometry">
            <mxPoint x="440" y="460" as="sourcePoint" />
            <mxPoint x="390" y="660" as="targetPoint" />
          </mxGeometry>
        </mxCell>
        <mxCell id="Vk_1e4DqvfFJr7k5B74B-3" value="" style="endArrow=none;html=1;rounded=0;" edge="1" parent="1">
          <mxGeometry width="50" height="50" relative="1" as="geometry">
            <mxPoint x="390" y="660" as="sourcePoint" />
            <mxPoint x="390" y="540" as="targetPoint" />
          </mxGeometry>
        </mxCell>
        <mxCell id="Vk_1e4DqvfFJr7k5B74B-4" value="NO" style="text;html=1;strokeColor=none;fillColor=none;align=center;verticalAlign=middle;whiteSpace=wrap;rounded=0;fontSize=17;" vertex="1" parent="1">
          <mxGeometry x="405" y="508.75" width="40" height="31.25" as="geometry" />
        </mxCell>
        <mxCell id="Vk_1e4DqvfFJr7k5B74B-5" value="SI" style="text;html=1;strokeColor=none;fillColor=none;align=center;verticalAlign=middle;whiteSpace=wrap;rounded=0;fontSize=17;" vertex="1" parent="1">
          <mxGeometry x="490" y="584" width="40" height="31.25" as="geometry" />
        </mxCell>
        <mxCell id="Vk_1e4DqvfFJr7k5B74B-7" value="SI" style="text;html=1;strokeColor=none;fillColor=none;align=center;verticalAlign=middle;whiteSpace=wrap;rounded=0;fontSize=17;" vertex="1" parent="1">
          <mxGeometry x="762" y="268.75" width="40" height="31.25" as="geometry" />
        </mxCell>
      </root>
    </mxGraphModel>
  </diagram>
</mxfile>
